<?xml version="1.0" standalone="no"?>
<!DOCTYPE svg PUBLIC "-//W3C//DTD SVG 20010904//EN"
 "http://www.w3.org/TR/2001/REC-SVG-20010904/DTD/svg10.dtd">
<svg version="1.0" xmlns="http://www.w3.org/2000/svg"
 width="512.000000pt" height="512.000000pt" viewBox="0 0 512.000000 512.000000"
 preserveAspectRatio="xMidYMid meet">
<metadata>
Created by potrace 1.14, written by Peter Selinger 2001-2017
</metadata>
<g transform="translate(0.000000,512.000000) scale(0.100000,-0.100000)"
fill="#000000" stroke="none">
<path d="M2175 4195 c-50 -38 -61 -71 -69 -205 -3 -58 -8 -116 -11 -130 -2
-14 -10 -50 -16 -80 -32 -158 -122 -242 -374 -348 -231 -97 -395 -167 -430
-182 -22 -9 -167 -71 -323 -136 -156 -66 -296 -130 -312 -144 -17 -15 -34 -45
-41 -72 -16 -60 6 -123 54 -155 26 -18 236 -88 542 -180 28 -8 203 -62 390
-120 187 -58 426 -131 530 -163 105 -32 272 -84 373 -115 100 -31 201 -57 225
-57 43 -1 57 4 277 109 143 68 179 85 360 166 80 36 174 78 210 95 36 16 115
51 175 77 399 173 539 302 604 558 34 129 46 476 20 539 -14 35 -56 77 -77 78
-7 0 -20 4 -30 9 -13 7 -101 29 -187 47 -5 1 -137 34 -293 73 -156 39 -293 73
-305 75 -12 3 -37 9 -54 15 -18 5 -33 8 -33 6 0 -3 -11 0 -25 5 -14 5 -36 12
-48 14 -12 3 -69 17 -127 31 -58 15 -112 28 -120 30 -8 2 -190 46 -403 99
-213 53 -400 95 -415 93 -15 -1 -45 -16 -67 -32z m701 -425 c247 -61 503 -124
569 -141 66 -17 125 -32 130 -33 6 -1 120 -28 254 -61 l243 -60 -5 -115 c-3
-64 -8 -122 -11 -130 -3 -8 -7 -27 -10 -42 -7 -45 -41 -112 -76 -152 -53 -59
-122 -98 -399 -221 -239 -106 -444 -199 -616 -280 -176 -83 -258 -116 -273
-112 -10 3 -100 31 -202 62 -102 31 -241 74 -310 95 -191 59 -361 111 -635
195 -137 42 -272 84 -299 92 l-50 15 105 44 c57 24 117 50 132 59 16 8 33 15
38 15 6 0 34 11 63 24 29 13 124 54 212 91 287 121 364 165 461 265 73 74 118
147 154 252 24 70 50 188 52 236 0 6 6 12 13 12 6 0 214 -50 460 -110z"/>
<path d="M4253 2518 c-48 -22 -124 -57 -168 -78 -44 -21 -102 -48 -130 -60
-27 -12 -79 -36 -115 -52 -36 -17 -110 -50 -165 -75 -174 -78 -188 -85 -265
-120 -41 -19 -194 -89 -340 -155 -146 -66 -289 -131 -318 -144 l-53 -24 -82
26 c-136 43 -1050 325 -1082 334 -16 5 -140 43 -275 85 -135 42 -252 78 -260
80 -8 2 -67 20 -130 39 -132 41 -175 40 -225 -6 -68 -61 -71 -157 -6 -218 33
-31 66 -44 312 -118 150 -46 333 -102 404 -124 72 -22 175 -53 230 -70 55 -17
107 -33 115 -36 8 -3 20 -6 25 -8 6 -1 223 -68 484 -148 261 -80 487 -146 502
-146 31 0 85 20 199 73 178 83 502 230 510 232 3 0 10 3 15 7 6 3 105 49 221
101 115 52 234 107 264 121 30 14 60 26 67 26 7 0 13 5 13 12 0 6 3 9 6 6 3
-4 31 6 62 22 31 15 135 62 230 105 118 53 180 87 197 107 53 62 42 155 -25
211 -17 15 -39 28 -48 28 -9 1 -31 2 -49 4 -20 1 -65 -13 -120 -37z"/>
<path d="M4305 1936 c-16 -7 -59 -27 -95 -43 -36 -17 -141 -65 -235 -108 -93
-42 -204 -93 -245 -112 -41 -19 -88 -41 -105 -48 -16 -8 -64 -29 -105 -48 -41
-19 -241 -110 -444 -202 -417 -190 -357 -176 -531 -122 -44 14 -138 43 -210
66 -71 22 -191 58 -265 81 -74 23 -163 50 -197 61 -35 10 -91 28 -125 38 -35
11 -261 81 -503 156 -479 149 -533 161 -587 120 -61 -46 -81 -128 -47 -196 21
-43 48 -62 115 -82 27 -9 123 -39 214 -67 91 -29 208 -65 260 -80 84 -25 238
-73 505 -157 44 -14 100 -31 125 -38 55 -16 221 -67 570 -176 149 -46 285 -82
310 -83 39 -1 157 50 890 383 465 212 855 391 868 399 35 23 64 88 59 132 -12
110 -121 171 -222 126z"/>
</g>
</svg>
