<svg width="465" height="351" xmlns="http://www.w3.org/2000/svg" preserveAspectRatio="xMidYMid meet" version="1.0">
 <metadata>Created by potrace 1.14, written by Peter Selinger 2001-2017</metadata>

 <g>
  <title>Layer 1</title>
  <path id="svg_2" d="m195.5,40.49999c-5,3.8 -6.1,7.1 -6.9,20.5c-0.3,5.8 -0.8,11.6 -1.1,13c-0.2,1.4 -1,5 -1.6,8c-3.2,15.8 -12.2,24.2 -37.4,34.8c-23.1,9.7 -39.5,16.7 -43,18.2c-2.2,0.9 -16.7,7.1 -32.3,13.6c-15.6,6.6 -29.6,13 -31.2,14.4c-1.7,1.5 -3.4,4.5 -4.1,7.2c-1.6,6 0.6,12.3 5.4,15.5c2.6,1.8 23.6,8.8 54.2,18c2.8,0.8 20.3,6.2 39,12c18.7,5.8 42.6,13.1 53,16.3c10.5,3.2 27.2,8.4 37.3,11.5c10,3.1 20.1,5.7 22.5,5.7c4.3,0.1 5.7,-0.4 27.7,-10.9c14.3,-6.8 17.9,-8.5 36,-16.6c8,-3.6 17.4,-7.8 21,-9.5c3.6,-1.6 11.5,-5.1 17.5,-7.7c39.9,-17.3 53.9,-30.2 60.4,-55.8c3.4,-12.9 4.6,-47.6 2,-53.9c-1.4,-3.5 -5.6,-7.7 -7.7,-7.8c-0.7,0 -2,-0.4 -3,-0.9c-1.3,-0.7 -10.1,-2.9 -18.7,-4.7c-0.5,-0.1 -13.7,-3.4 -29.3,-7.3c-15.6,-3.9 -29.3,-7.3 -30.5,-7.5c-1.2,-0.3 -3.7,-0.9 -5.4,-1.5c-1.8,-0.5 -3.3,-0.8 -3.3,-0.6c0,0.3 -1.1,0 -2.5,-0.5c-1.4,-0.5 -3.6,-1.2 -4.8,-1.4c-1.2,-0.3 -6.9,-1.7 -12.7,-3.1c-5.8,-1.5 -11.2,-2.8 -12,-3c-0.8,-0.2 -19,-4.6 -40.3,-9.9c-21.3,-5.3 -40,-9.5 -41.5,-9.3c-1.5,0.1 -4.5,1.6 -6.7,3.2zm70.1,42.5c24.7,6.1 50.3,12.4 56.9,14.1c6.6,1.7 12.5,3.2 13,3.3c0.6,0.1 12,2.8 25.4,6.1l24.3,6l-0.5,11.5c-0.3,6.4 -0.8,12.2 -1.1,13c-0.3,0.8 -0.7,2.7 -1,4.2c-0.7,4.5 -4.1,11.2 -7.6,15.2c-5.3,5.9 -12.2,9.8 -39.9,22.1c-23.9,10.6 -44.4,19.9 -61.6,28c-17.6,8.3 -25.8,11.6 -27.3,11.2c-1,-0.3 -10,-3.1 -20.2,-6.2c-10.2,-3.1 -24.1,-7.4 -31,-9.5c-19.1,-5.9 -36.1,-11.1 -63.5,-19.5c-13.7,-4.2 -27.2,-8.4 -29.9,-9.2l-5,-1.5l10.5,-4.4c5.7,-2.4 11.7,-5 13.2,-5.9c1.6,-0.8 3.3,-1.5 3.8,-1.5c0.6,0 3.4,-1.1 6.3,-2.4c2.9,-1.3 12.4,-5.4 21.2,-9.1c28.7,-12.1 36.4,-16.5 46.1,-26.5c7.3,-7.4 11.8,-14.7 15.4,-25.2c2.4,-7 5,-18.8 5.2,-23.6c0,-0.6 0.6,-1.2 1.3,-1.2c0.6,0 21.4,5 46,11z"/>
  <path id="svg_3" d="m403.30001,208.2c-4.8,2.2 -12.4,5.7 -16.8,7.8c-4.4,2.1 -10.2,4.8 -13,6c-2.7,1.2 -7.9,3.6 -11.5,5.2c-3.6,1.7 -11,5 -16.5,7.5c-17.4,7.8 -18.8,8.5 -26.5,12c-4.1,1.9 -19.4,8.9 -34,15.5c-14.6,6.6 -28.9,13.1 -31.8,14.4l-5.3,2.4l-8.2,-2.6c-13.6,-4.3 -105,-32.5 -108.2,-33.4c-1.6,-0.5 -14,-4.3 -27.5,-8.5c-13.5,-4.2 -25.2,-7.8 -26,-8c-0.8,-0.2 -6.7,-2 -13,-3.9c-13.2,-4.1 -17.5,-4 -22.5,0.6c-6.8,6.1 -7.1,15.7 -0.6,21.8c3.3,3.1 6.6,4.4 31.2,11.8c15,4.6 33.3,10.2 40.4,12.4c7.2,2.2 17.5,5.3 23,7c5.5,1.7 10.7,3.3 11.5,3.6c0.8,0.3 2,0.6 2.5,0.8c0.6,0.1 22.3,6.8 48.4,14.8c26.1,8 48.7,14.6 50.2,14.6c3.1,0 8.5,-2 19.9,-7.3c17.8,-8.3 50.2,-23 51,-23.2c0.3,0 1,-0.3 1.5,-0.7c0.6,-0.3 10.5,-4.9 22.1,-10.1c11.5,-5.2 23.4,-10.7 26.4,-12.1c3,-1.4 6,-2.6 6.7,-2.6c0.7,0 1.3,-0.5 1.3,-1.2c0,-0.6 0.3,-0.9 0.6,-0.6c0.3,0.4 3.1,-0.6 6.2,-2.2c3.1,-1.5 13.5,-6.2 23,-10.5c11.8,-5.3 18,-8.7 19.7,-10.7c5.3,-6.2 4.2,-15.5 -2.5,-21.1c-1.7,-1.5 -3.9,-2.8 -4.8,-2.8c-0.9,-0.1 -3.1,-0.2 -4.9,-0.4c-2,-0.1 -6.5,1.3 -12,3.7z"/>
 </g>
</svg>